<svg xmlns="http://www.w3.org/2000/svg" style="display: none;">
    <symbol id="home" viewBox="0 0 16 16">
        <path d="M6.65625 13.3438H3.34375V8H1.34375L8 2L14.6562 8H12.6562V13.3438H9.34375V9.34375H6.65625V13.3438Z"
            fill="currentColor" />
    </symbol>
    <symbol id="chat" viewBox="0 0 16 16">
        <path d="M11 4.34375V3H3V4.34375H11ZM8.34375 8.34375V7H3V8.34375H8.34375ZM3 5V6.34375H11V5H3ZM12.3438 0.34375C12.6979 0.34375 13 0.479167 13.25 0.75C13.5208 1 13.6562 1.30208 13.6562 1.65625V9.65625C13.6562 10.0104 13.5208 10.3229 13.25 10.5938C13 10.8646 12.6979 11 12.3438 11H3L0.34375 13.6562V1.65625C0.34375 1.30208 0.46875 1 0.71875 0.75C0.989583 0.479167 1.30208 0.34375 1.65625 0.34375H12.3438Z"
            fill="currentColor" />
    </symbol>
    <symbol id="search" viewBox="0 0 16 16">
        <path d="M2.21875 6.46875C2.80208 7.05208 3.51042 7.34375 4.34375 7.34375C5.17708 7.34375 5.88542 7.05208 6.46875 6.46875C7.05208 5.88542 7.34375 5.17708 7.34375 4.34375C7.34375 3.51042 7.05208 2.80208 6.46875 2.21875C5.88542 1.63542 5.17708 1.34375 4.34375 1.34375C3.51042 1.34375 2.80208 1.63542 2.21875 2.21875C1.63542 2.80208 1.34375 3.51042 1.34375 4.34375C1.34375 5.17708 1.63542 5.88542 2.21875 6.46875ZM8.34375 7.34375L11.6562 10.6562L10.6562 11.6562L7.34375 8.34375V7.8125L7.15625 7.625C6.36458 8.3125 5.42708 8.65625 4.34375 8.65625C3.13542 8.65625 2.10417 8.23958 1.25 7.40625C0.416667 6.57292 0 5.55208 0 4.34375C0 3.13542 0.416667 2.11458 1.25 1.28125C2.10417 0.427083 3.13542 0 4.34375 0C5.55208 0 6.57292 0.427083 7.40625 1.28125C8.23958 2.11458 8.65625 3.13542 8.65625 4.34375C8.65625 4.78125 8.55208 5.28125 8.34375 5.84375C8.13542 6.38542 7.89583 6.82292 7.625 7.15625L7.8125 7.34375H8.34375Z"
            fill="currentColor" />
    </symbol>
    <symbol id="arrow" viewBox="0 0 16 16">
        <path d="M0.222657 8.44531L3.66797 5L0.222656 1.55469L1.27734 0.5L5.77734 5L1.27734 9.5L0.222657 8.44531Z" fill="currentColor"/>
    </symbol>
    <symbol id="settings" viewBox="0 0 16 16">
        <path d="M5.34376 8.65625C5.80209 9.11458 6.35418 9.34375 7.00001 9.34375C7.64584 9.34375 8.19793 9.11458 8.65626 8.65625C9.11459 8.19792 9.34376 7.64583 9.34376 7C9.34376 6.35417 9.11459 5.80208 8.65626 5.34375C8.19793 4.88542 7.64584 4.65625 7.00001 4.65625C6.35418 4.65625 5.80209 4.88542 5.34376 5.34375C4.88543 5.80208 4.65626 6.35417 4.65626 7C4.65626 7.64583 4.88543 8.19792 5.34376 8.65625ZM11.9688 7.65625L13.375 8.75C13.5208 8.85417 13.5417 9 13.4375 9.1875L12.0938 11.5C12.0104 11.6458 11.875 11.6875 11.6875 11.625L10.0312 10.9688C9.59376 11.2812 9.21876 11.5 8.90626 11.625L8.65626 13.375C8.61459 13.5625 8.51043 13.6562 8.34376 13.6562H5.65626C5.48959 13.6562 5.38543 13.5625 5.34376 13.375L5.09376 11.625C4.69793 11.4583 4.32293 11.2396 3.96876 10.9688L2.31251 11.625C2.12501 11.6875 1.98959 11.6458 1.90626 11.5L0.56251 9.1875C0.458343 9 0.479177 8.85417 0.62501 8.75L2.03126 7.65625C2.01043 7.51042 2.00001 7.29167 2.00001 7C2.00001 6.70833 2.01043 6.48958 2.03126 6.34375L0.62501 5.25C0.479177 5.14583 0.458343 5 0.56251 4.8125L1.90626 2.5C1.98959 2.35417 2.12501 2.3125 2.31251 2.375L3.96876 3.03125C4.40626 2.71875 4.78126 2.5 5.09376 2.375L5.34376 0.625C5.38543 0.4375 5.48959 0.34375 5.65626 0.34375H8.34376C8.51043 0.34375 8.61459 0.4375 8.65626 0.625L8.90626 2.375C9.30209 2.54167 9.67709 2.76042 10.0312 3.03125L11.6875 2.375C11.875 2.3125 12.0104 2.35417 12.0938 2.5L13.4375 4.8125C13.5417 5 13.5208 5.14583 13.375 5.25L11.9688 6.34375C11.9896 6.48958 12 6.70833 12 7C12 7.29167 11.9896 7.51042 11.9688 7.65625Z" fill="currentColor"/>
    </symbol>
</svg>